<svg width="16" height="16" viewBox="0 0 16 16" fill="none" xmlns="http://www.w3.org/2000/svg">
<path d="M6.91859 1.13938C7.08639 -0.123594 8.91361 -0.12359 9.08141 1.13939L9.34311 3.10912C9.44651 3.8874 10.3135 4.30491 10.9864 3.9005L12.6896 2.877C13.7817 2.22073 14.9209 3.64931 14.0381 4.56795L12.6613 6.00067C12.1172 6.56677 12.3314 7.5049 13.0671 7.77889L14.9292 8.47234C16.1232 8.91697 15.7166 10.6984 14.448 10.5809L12.4694 10.3978C11.6876 10.3254 11.0877 11.0777 11.3322 11.8238L11.951 13.712C12.3478 14.9227 10.7016 15.7155 10.0024 14.6504L8.91197 12.9893C8.48113 12.3329 7.51887 12.3329 7.08803 12.9893L5.9976 14.6504C5.29844 15.7155 3.65218 14.9227 4.04898 13.712L4.66783 11.8238C4.91235 11.0777 4.31239 10.3254 3.53062 10.3978L1.55203 10.5809C0.283376 10.6984 -0.123213 8.91697 1.07076 8.47234L2.93288 7.77889C3.66864 7.50489 3.88276 6.56677 3.33874 6.00067L1.96191 4.56795C1.07909 3.64931 2.21834 2.22074 3.3104 2.877L5.01357 3.9005C5.68653 4.30491 6.55349 3.8874 6.65689 3.10912L6.91859 1.13938Z" fill="#D5D3C5"/>
</svg>
